<?xml version="1.0" encoding="utf-8"?>
<!-- Generator: Adobe Illustrator 26.0.3, SVG Export Plug-In . SVG Version: 6.00 Build 0)  -->
<svg version="1.1" id="Слой_1" xmlns="http://www.w3.org/2000/svg" xmlns:xlink="http://www.w3.org/1999/xlink" x="0px" y="0px"
	 viewBox="0 0 507.83 142.47" style="enable-background:new 0 0 507.83 142.47;" xml:space="preserve">
<style type="text/css">
	.st0{fill:#000000;}
</style>
<path class="st0" d="M3.61,50.29v42.18h15.68c2.98,0,5.39,2.41,5.39,5.39v15.7h15.7c2.98,0,5.39,2.41,5.39,5.39v15.7h42.2v-21.1
	h-36.8c-2.98,0-5.39-2.41-5.39-5.39v-7.91c0-4.3,3.49-7.79,7.79-7.79h23.31c6.13,0,11.09-4.97,11.09-11.09V58.09
	c0-4.3,3.49-7.79,7.79-7.79h7.89c2.98,0,5.39,2.41,5.39,5.39v36.78h21.1V50.29h-15.7c-2.98,0-5.39-2.41-5.39-5.39v-15.7H93.38
	c-2.98,0-5.39-2.41-5.39-5.39V8.09h-42.2v21.1h36.8c2.98,0,5.39,2.41,5.39,5.39v7.91c0,4.3-3.49,7.79-7.79,7.79H56.88
	c-6.13,0-11.09,4.97-11.09,11.09v23.29c0,4.3-3.49,7.79-7.79,7.79h-7.91c-2.98,0-5.39-2.41-5.39-5.39V50.29H3.61z"/>
<g>
	<path class="st0" d="M220.22,70.43c-2.41-1.93-5.27-3.56-8.56-4.89c-3.3-1.33-6.99-2.41-11.07-3.23c-1.78-0.3-3.49-0.68-5.12-1.17
		c-1.63-0.48-3.08-1.07-4.34-1.78c-1.26-0.7-2.26-1.5-3-2.39c-0.74-0.89-1.11-1.96-1.11-3.23c0-1.41,0.44-2.61,1.33-3.61
		c0.89-1,2.13-1.78,3.73-2.34c1.59-0.56,3.5-0.83,5.73-0.83c2.15,0,4.24,0.33,6.28,1c2.04,0.67,3.97,1.63,5.78,2.89
		c1.82,1.26,3.5,2.86,5.06,4.78l11.46-11.56c-1.81-2.68-3.98-4.98-6.51-6.9c-2.63-2-5.78-3.54-9.45-4.62
		c-3.67-1.07-8.06-1.61-13.18-1.61c-3.86,0-7.56,0.58-11.12,1.72c-3.56,1.15-6.69,2.78-9.4,4.89c-2.71,2.11-4.86,4.63-6.45,7.56
		c-1.6,2.93-2.39,6.14-2.39,9.62c0,3.26,0.52,6.21,1.56,8.84c1.04,2.63,2.61,4.97,4.73,7.01c2.11,2.04,4.76,3.76,7.95,5.17
		c3.19,1.41,6.93,2.6,11.23,3.56c1.56,0.3,3.08,0.65,4.56,1.06c1.48,0.41,2.89,0.89,4.23,1.45c1.33,0.56,2.48,1.17,3.45,1.84
		c0.96,0.67,1.72,1.45,2.28,2.34c0.56,0.89,0.83,1.89,0.83,3c0,1.48-0.44,2.72-1.33,3.73c-0.89,1-2.15,1.76-3.78,2.28
		c-1.63,0.52-3.45,0.78-5.45,0.78c-4,0-7.88-0.85-11.62-2.56c-3.52-1.6-7.03-4.65-10.52-9.14l-12.12,12.14
		c2.52,3.19,5.37,5.95,8.56,8.29c3.19,2.34,6.84,4.11,10.95,5.34s8.73,1.84,13.85,1.84c5.93,0,11.18-0.98,15.74-2.95
		c4.56-1.96,8.16-4.82,10.79-8.56c2.63-3.74,3.95-8.32,3.95-13.73c0-3.48-0.65-6.54-1.95-9.18
		C224.48,74.64,222.63,72.36,220.22,70.43z"/>
	<path class="st0" d="M275.66,86.78c0,1.48-0.26,2.84-0.78,4.06c-0.52,1.22-1.24,2.3-2.17,3.23c-0.93,0.93-2.04,1.65-3.34,2.17
		c-1.3,0.52-2.72,0.78-4.28,0.78c-2.08,0-3.86-0.46-5.34-1.39c-1.48-0.93-2.6-2.24-3.34-3.95c-0.74-1.7-1.11-3.74-1.11-6.12V51.53
		H237.4v36.48c0,4.97,0.83,9.23,2.5,12.79c1.67,3.56,4.04,6.28,7.12,8.17c3.08,1.89,6.8,2.84,11.18,2.84c3.26,0,6.34-0.65,9.23-1.95
		c2.89-1.3,5.37-3.04,7.45-5.23c0.5-0.53,0.97-1.08,1.4-1.65l0.49,7.6h16.79V51.53h-17.91V86.78z"/>
	<path class="st0" d="M352.73,54.25c-3.97-2.63-8.51-3.95-13.62-3.95c-2.45,0-4.82,0.37-7.12,1.11c-2.3,0.74-4.41,1.76-6.34,3.06
		c-1.4,0.94-2.62,1.99-3.67,3.13V32.56h-17.91v77.91h16.57l0.46-6.31c1.16,1.31,2.54,2.49,4.15,3.53c1.96,1.26,4.17,2.26,6.62,3
		c2.45,0.74,5,1.11,7.67,1.11c4.97,0,9.42-1.32,13.35-3.95c3.93-2.63,7.02-6.26,9.29-10.9c2.26-4.63,3.39-9.95,3.39-15.96
		c0-5.93-1.15-11.21-3.45-15.85C359.83,60.52,356.69,56.88,352.73,54.25z M346.5,89.28c-1.08,2.34-2.61,4.17-4.62,5.51
		c-2,1.33-4.34,2-7.01,2c-2.74,0-5.12-0.67-7.12-2c-2-1.33-3.56-3.17-4.67-5.51c-1.11-2.34-1.67-5.1-1.67-8.29
		c0-3.11,0.56-5.86,1.67-8.23c1.11-2.37,2.67-4.19,4.67-5.45c2-1.26,4.37-1.89,7.12-1.89c2.67,0,5,0.63,7.01,1.89
		c2,1.26,3.54,3.08,4.62,5.45c1.07,2.37,1.61,5.12,1.61,8.23C348.11,84.19,347.57,86.95,346.5,89.28z"/>
	<path class="st0" d="M443.72,32.41h-7.32h-12.03l-14.46,39.7c-1.11,2.97-2.04,5.51-2.78,7.62c-0.74,2.11-1.41,4.15-2,6.12
		c-0.03,0.09-0.05,0.19-0.08,0.28c-0.31-1.08-0.63-2.16-0.97-3.23c-0.48-1.48-1.04-3.08-1.67-4.78c-0.63-1.7-1.39-3.71-2.28-6.01
		l-15.01-39.7h-19.69l31.14,77.85h15.79L437,49.09h22.54v61.17h18.91V49.09h23.69V32.41H443.72z"/>
</g>
</svg>
