<svg xmlns="http://www.w3.org/2000/svg" viewBox="0 0 1509.73 713.28"><defs><style>.cls-1{fill:#041a26;}</style></defs><g id="Слой_2" data-name="Слой 2"><path class="cls-1" d="M626.3,385.31a103.2,103.2,0,0,0-25.87-14.78A187.06,187.06,0,0,0,567,360.79a129.83,129.83,0,0,1-15.46-3.53,63.72,63.72,0,0,1-13.1-5.38,31.63,31.63,0,0,1-9.07-7.22,14.71,14.71,0,0,1-3.36-9.74A15.86,15.86,0,0,1,530,324a26.3,26.3,0,0,1,11.26-7.06,52.68,52.68,0,0,1,17.3-2.52,60.55,60.55,0,0,1,19,3,67.24,67.24,0,0,1,17.47,8.73,74.2,74.2,0,0,1,15.29,14.45L645,305.71a84.31,84.31,0,0,0-48.23-34.79q-16.63-4.87-39.81-4.87a108.69,108.69,0,0,0-33.6,5.2A91.5,91.5,0,0,0,494.93,286a73.25,73.25,0,0,0-19.48,22.85,59.77,59.77,0,0,0-7.22,29.06,72.16,72.16,0,0,0,4.7,26.71,59.38,59.38,0,0,0,14.28,21.17,81.61,81.61,0,0,0,24,15.62,183.25,183.25,0,0,0,33.93,10.75q7.05,1.35,13.78,3.19a106.79,106.79,0,0,1,12.76,4.37,57.13,57.13,0,0,1,10.42,5.54,24.25,24.25,0,0,1,6.88,7.06,16.74,16.74,0,0,1,2.52,9.07,16.29,16.29,0,0,1-4,11.25q-4,4.54-11.42,6.89a54.09,54.09,0,0,1-16.46,2.35,83.68,83.68,0,0,1-35.11-7.73q-16-7.26-31.77-27.61l-36.6,36.69a133.09,133.09,0,0,0,25.87,25,107.1,107.1,0,0,0,33.09,16.13Q533.73,510,556.92,510q26.88,0,47.54-8.9t32.59-25.87q11.91-17,11.92-41.49,0-15.79-5.88-27.72A60.83,60.83,0,0,0,626.3,385.31Z"/><path class="cls-1" d="M793.77,434.7A31.23,31.23,0,0,1,791.42,447a30.49,30.49,0,0,1-6.55,9.74,29.71,29.71,0,0,1-10.08,6.56,34.72,34.72,0,0,1-12.94,2.35,29.77,29.77,0,0,1-16.12-4.2,25.63,25.63,0,0,1-10.08-11.93q-3.37-7.73-3.36-18.48V328.2H678.2V438.39q0,22.51,7.56,38.64t21.5,24.69q13.93,8.56,33.76,8.57a67.35,67.35,0,0,0,27.89-5.88,70.49,70.49,0,0,0,22.51-15.79,61.45,61.45,0,0,0,4.23-5l1.48,22.94h50.73V328.2H793.77Z"/><path class="cls-1" d="M1026.57,336.43q-18-11.93-41.15-11.93a69.89,69.89,0,0,0-21.51,3.36,76.23,76.23,0,0,0-19.15,9.24,62,62,0,0,0-11.08,9.45V270.91H879.59V506.26h50.06L931,487.21a59.7,59.7,0,0,0,12.55,10.65,80.72,80.72,0,0,0,43.17,12.43,70.72,70.72,0,0,0,40.31-11.93q17.81-11.92,28.06-32.92t10.24-48.21q0-26.88-10.41-47.88T1026.57,336.43Zm-18.81,105.83a39.19,39.19,0,0,1-14,16.63,37.24,37.24,0,0,1-21.16,6q-12.43,0-21.5-6A40.32,40.32,0,0,1,937,442.26q-5-10.59-5-25,0-14.12,5-24.86a37.9,37.9,0,0,1,14.11-16.47q9.06-5.7,21.5-5.71a38.92,38.92,0,0,1,21.16,5.71,36.88,36.88,0,0,1,14,16.47q4.86,10.75,4.87,24.86Q1012.63,431.68,1007.76,442.26Z"/><path class="cls-1" d="M1301.45,270.44H1243l-43.67,119.94q-5,13.44-8.4,23t-6.05,18.48l-.25.85c-.93-3.27-1.9-6.53-2.94-9.75q-2.19-6.72-5-14.45t-6.89-18.14L1124.4,270.44h-59.47L1159,505.61h47.71l74.44-184.78h68.07V505.61h57.11V320.83h71.56V270.44Z"/><path class="cls-1" d="M326.16,212.22H90.35v58.52H31.83V506.55H90.35v58.52H326.16V506.55h58.52V270.74H326.16Zm-.44,59V354H242.94V271.18ZM173.58,354H90.79V271.18h82.79ZM90.79,506.12V423.33h82.79v82.79Zm152.15-82.79h82.78v82.79H242.94Z"/></g></svg>